<?xml version="1.0" encoding="UTF-8" standalone="no"?>
<svg
   xmlns:dc="http://purl.org/dc/elements/1.1/"
   xmlns:cc="http://creativecommons.org/ns#"
   xmlns:rdf="http://www.w3.org/1999/02/22-rdf-syntax-ns#"
   xmlns:svg="http://www.w3.org/2000/svg"
   xmlns="http://www.w3.org/2000/svg"
   xmlns:sodipodi="http://sodipodi.sourceforge.net/DTD/sodipodi-0.dtd"
   xmlns:inkscape="http://www.inkscape.org/namespaces/inkscape"
   height="1024"
   width="896"
   version="1.1"
   id="svg831"
   sodipodi:docname="clippy.svg"
   inkscape:version="0.92.2 (5c3e80d, 2017-08-06)">
  <metadata
     id="metadata837">
    <rdf:RDF>
      <cc:Work
         rdf:about="">
        <dc:format>image/svg+xml</dc:format>
        <dc:type
           rdf:resource="http://purl.org/dc/dcmitype/StillImage" />
      </cc:Work>
    </rdf:RDF>
  </metadata>
  <defs
     id="defs835" />
  <sodipodi:namedview
     pagecolor="#ffffff"
     bordercolor="#666666"
     borderopacity="1"
     objecttolerance="10"
     gridtolerance="10"
     guidetolerance="10"
     inkscape:pageopacity="0"
     inkscape:pageshadow="2"
     inkscape:window-width="1920"
     inkscape:window-height="1017"
     id="namedview833"
     showgrid="false"
     inkscape:zoom="0.23046875"
     inkscape:cx="448"
     inkscape:cy="512"
     inkscape:window-x="-8"
     inkscape:window-y="-8"
     inkscape:window-maximized="1"
     inkscape:current-layer="svg831" />
  <path
     d="m 128,785.35593 h 256 v 64 H 128 Z m 320,-384 H 128 v 64 h 320 z m 128,192 v -128 l -192,192 192,192 v -128 h 320 v -128 z m -288,-64 H 128 v 64 h 160 z m -160,192 h 160 v -64 H 128 Z m 576,64 h 64 v 128 c -1,18 -7,33 -19,45 -12,12 -27,18 -45,19 H 64 c -35,0 -64,-29 -64,-64 v -704 c 0,-35 29,-64 64,-64 h 192 c 0,-70.999998 57,-127.999998 128,-127.999998 71,0 128,57 128,127.999998 h 192 c 35,0 64,29 64,64 v 320 h -64 v -192 H 64 v 576 h 640 z m -576,-512 h 512 c 0,-35 -29,-64 -64,-64 h -64 c -35,0 -64,-29 -64,-64 0,-35 -29,-63.999998 -64,-63.999998 -35,0 -64,28.999998 -64,63.999998 0,35 -29,64 -64,64 h -64 c -35,0 -64,29 -64,64 z"
     id="path829"
     inkscape:connector-curvature="0"
     style="fill:#ffffff;fill-opacity:1" />
</svg>
